<svg fill="white" width="100%" height="100%" viewBox="0 0 994 374" version="1.1" xmlns="http://www.w3.org/2000/svg" xmlns:xlink="http://www.w3.org/1999/xlink" xml:space="preserve" style="fill-rule:evenodd;clip-rule:evenodd;stroke-linejoin:round;stroke-miterlimit:2;"><g transform="matrix(1,0,0,1,-7014,-15079)"><g transform="matrix(1.17378,0,0,1.16563,-1391.53,-2497.71)"><g transform="matrix(0.871777,0.233592,-0.226855,0.846635,7215.18,14870.5)"><path d="M189.486,343.471C205.411,369.672 228.536,380.159 260.976,371.667C265.398,370.509 269.831,373.521 270.222,378.076C271.347,391.214 272.691,403.695 272.608,416.169C272.294,462.612 260.854,506.72 242.99,549.403C239.523,557.683 230.811,562.551 221.965,561.032C212.994,559.491 203.914,558.153 194.838,557.699C182.664,557.087 180.275,551.792 181.759,539.958C186.537,501.818 190.031,463.517 193.595,425.236C194.155,419.254 193.406,413.145 192.844,405.461C192.655,402.875 189.997,401.211 187.599,402.19C177.829,406.186 169.491,409.478 161.323,413.137C133.59,425.543 105.787,437.811 78.353,450.847C68.646,455.461 63.491,453.517 59.649,443.793C55.001,432.028 48.861,420.805 44.866,408.849C43.595,405.055 45.798,396.691 48.637,395.431L179.751,340.355C183.317,338.857 187.478,340.167 189.486,343.471Z" style="fill-rule:nonzero;"></path></g><g transform="matrix(0.871777,0.233592,-0.226855,0.846635,7215.18,14870.5)"><path d="M367.682,485.979C364.63,491.479 358.863,494.955 352.627,495.774C337.936,497.709 325.013,499.582 312.031,500.207C308.932,500.354 302.848,493.83 302.622,490.114C300.672,457.775 299.294,425.386 299.039,393C299.001,388.366 305.14,380.732 309.709,379.578C325.301,375.628 341.472,373.921 357.431,371.419C367.355,369.861 373.162,374.967 372.985,384.238C372.363,416.485 371.234,448.742 369.334,480.935C369.232,482.661 368.581,484.355 367.682,485.979Z" style="fill-rule:nonzero;"></path></g><g transform="matrix(0.871777,0.233592,-0.226855,0.846635,7215.18,14870.5)"><path d="M289.067,301.976C281.424,278.324 255.385,264.994 231.897,272.709C208.249,280.478 195.063,306.353 202.711,329.982C210.374,353.644 236.108,366.769 259.921,359.151C283.637,351.559 296.77,325.807 289.067,301.976ZM249.87,329.775C240.221,332.36 235.585,329.034 232.999,319.381C230.412,309.728 232.975,305.314 242.623,302.729C252.272,300.144 257.658,302.422 260.246,312.08C262.834,321.739 259.519,327.189 249.87,329.775Z" style="fill-rule:nonzero;"></path></g><g transform="matrix(0.871777,0.233592,-0.226855,0.846635,7215.18,14870.5)"><path d="M713.483,183.089C705.516,158.434 678.372,144.537 653.882,152.58C629.228,160.678 615.486,187.657 623.458,212.29C631.444,236.956 658.277,250.643 683.101,242.695C707.827,234.784 721.516,207.933 713.488,183.088L713.483,183.089ZM672.62,212.072C662.561,214.767 657.725,211.305 655.028,201.237C652.33,191.169 655.006,186.573 665.065,183.878C675.123,181.182 680.74,183.556 683.438,193.624C686.136,203.693 682.678,209.377 672.62,212.072Z" style="fill-rule:nonzero;"></path></g><g transform="matrix(0.871777,0.233592,-0.226855,0.846635,7215.18,14870.5)"><path d="M611.773,214.156C625.448,247.954 649.692,263.55 687.795,256.834C691.501,256.183 694.869,259.084 694.812,262.854C694.581,277.303 694.77,290.995 693.333,304.526C688.222,352.672 671.809,397.25 648.881,439.684C644.431,447.918 634.886,452.065 625.867,449.578C616.719,447.054 607.442,444.733 598.071,443.321C585.504,441.426 583.571,435.689 586.328,423.567C595.214,384.495 602.784,345.124 610.427,305.782C611.882,298.285 611.351,290.398 611.886,279.67C598.979,283.568 588.493,286.47 578.193,289.902C548.144,299.912 518.037,309.77 488.228,320.459C477.68,324.24 472.538,321.696 469.55,311.212C465.938,298.524 460.727,286.254 457.813,273.438C456.885,269.368 460.036,260.918 463.108,259.905C511.696,243.891 560.569,228.761 609.393,213.465C609.788,213.343 610.351,213.724 611.773,214.156Z" style="fill-rule:nonzero;"></path></g><g transform="matrix(0.871777,0.233592,-0.226855,0.846635,7215.18,14870.5)"><path d="M463.332,360.747C465.265,364.987 470.668,366.3 474.355,363.452C484.032,355.976 492.209,349.716 500.22,343.245C507.238,337.578 513.636,336.775 520.922,343.053C526.783,348.096 533.497,352.135 539.76,356.717C559.334,371.047 559.815,373.083 545.818,392.149C522.358,424.086 493.456,450.412 460.805,472.583C451.412,478.958 439.557,475.673 434.606,465.449C409.559,413.724 384.968,361.779 359.501,310.264C353.112,297.366 353.889,289.502 368.173,283.706C380.052,278.884 391.599,273.311 402.63,266.78C413.081,260.594 418.908,262.537 423.456,272.934C434.863,299.023 446.946,324.816 458.771,350.722L463.336,360.74L463.332,360.747Z" style="fill-rule:nonzero;"></path></g><g transform="matrix(0.871777,0.233592,-0.226855,0.846635,7215.18,14870.5)"><path d="M786.007,362.783C782.955,368.283 777.187,371.76 770.951,372.579C756.26,374.514 743.337,376.387 730.355,377.012C727.256,377.158 721.172,370.634 720.946,366.919C718.996,334.58 717.619,302.191 717.364,269.805C717.325,265.171 723.464,257.537 728.033,256.383C743.625,252.433 759.797,250.726 775.755,248.224C785.679,246.666 791.487,251.772 791.309,261.043C790.687,293.289 789.558,325.547 787.658,357.74C787.557,359.465 786.905,361.159 786.007,362.783Z" style="fill-rule:nonzero;"></path></g><g transform="matrix(0.871777,0.233592,-0.226855,0.846635,7215.18,14870.5)"><path d="M880.297,232.483C882.23,236.723 887.634,238.037 891.32,235.188C900.998,227.712 909.174,221.452 917.186,214.982C924.204,209.314 930.601,208.511 937.888,214.789C943.749,219.832 950.462,223.871 956.725,228.454C976.3,242.783 976.78,244.819 962.783,263.886C939.324,295.822 910.421,322.149 877.77,344.32C868.378,350.694 856.522,347.409 851.571,337.185C826.524,285.46 801.933,233.515 776.466,182.001C770.077,169.102 770.854,161.239 785.138,155.442C797.017,150.62 808.565,145.047 819.595,138.516C830.047,132.33 835.874,134.274 840.421,144.671C851.829,170.759 863.911,196.553 875.736,222.458L880.301,232.477L880.297,232.483Z" style="fill-rule:nonzero;"></path></g><g transform="matrix(0.871777,0.233592,-0.226855,0.846635,7215.18,14870.5)"><path d="M189.379,343.074C205.305,369.276 228.429,379.762 260.87,371.271C265.292,370.113 269.725,373.124 270.116,377.68C271.24,390.817 272.585,403.299 272.501,415.772C272.187,462.216 260.748,506.324 242.884,549.006C239.417,557.287 230.705,562.155 221.858,560.635C212.887,559.095 203.808,557.757 194.732,557.302C182.557,556.691 180.168,551.396 181.653,539.561C186.431,501.421 189.925,463.121 193.488,424.84C194.048,418.857 193.3,412.748 192.737,405.065C192.548,402.479 189.891,400.814 187.492,401.794C177.723,405.789 169.385,409.081 161.216,412.74C133.483,425.147 105.68,437.414 78.246,450.451C68.539,455.064 63.384,453.12 59.543,443.396C54.895,431.632 48.755,420.408 44.76,408.452C43.488,404.659 45.692,396.294 48.53,395.034L179.644,339.959C183.211,338.461 187.372,339.771 189.379,343.074Z" style="fill-rule:nonzero;"></path></g><g transform="matrix(0.871777,0.233592,-0.226855,0.846635,7215.18,14870.5)"><path d="M367.576,485.582C364.524,491.082 358.757,494.559 352.521,495.378C337.83,497.312 324.907,499.186 311.925,499.81C308.826,499.957 302.742,493.433 302.516,489.718C300.566,457.379 299.188,424.99 298.933,392.604C298.895,387.97 305.034,380.335 309.603,379.182C325.195,375.232 341.366,373.524 357.325,371.022C367.249,369.465 373.056,374.571 372.879,383.841C372.257,416.088 371.128,448.346 369.228,480.539C369.127,482.264 368.475,483.958 367.576,485.582Z" style="fill-rule:nonzero;"></path></g><g transform="matrix(0.871777,0.233592,-0.226855,0.846635,7215.18,14870.5)"><path d="M288.961,301.58C281.318,277.928 255.279,264.598 231.791,272.313C208.143,280.082 194.957,305.956 202.605,329.585C210.268,353.248 236.002,366.372 259.815,358.754C283.531,351.163 296.664,325.411 288.961,301.58ZM249.764,329.378C240.116,331.964 235.479,328.638 232.893,318.985C230.306,309.332 232.869,304.918 242.517,302.332C252.166,299.747 257.552,302.026 260.14,311.684C262.728,321.342 259.413,326.793 249.764,329.378Z" style="fill-rule:nonzero;"></path></g><g transform="matrix(0.871777,0.233592,-0.226855,0.846635,7215.18,14870.5)"><path d="M713.377,182.693C705.41,158.037 678.267,144.141 653.776,152.184C629.122,160.282 615.381,187.26 623.352,211.893C631.338,236.56 658.171,250.247 682.996,242.298C707.722,234.387 721.411,207.537 713.382,182.691L713.377,182.693ZM672.514,211.676C662.456,214.371 657.62,210.909 654.922,200.841C652.224,190.772 654.901,186.176 664.959,183.481C675.018,180.786 680.635,183.16 683.333,193.228C686.03,203.296 682.573,208.981 672.514,211.676Z" style="fill-rule:nonzero;"></path></g><g transform="matrix(0.871777,0.233592,-0.226855,0.846635,7215.18,14870.5)"><path d="M611.668,213.76C625.343,247.558 649.587,263.154 687.69,256.438C691.396,255.787 694.764,258.687 694.707,262.457C694.476,276.907 694.665,290.599 693.228,304.129C688.118,352.276 671.704,396.854 648.776,439.288C644.326,447.522 634.781,451.669 625.762,449.181C616.614,446.657 607.337,444.336 597.966,442.925C585.399,441.03 583.466,435.292 586.223,423.171C595.109,384.098 602.679,344.727 610.322,305.386C611.777,297.889 611.246,290.001 611.781,279.273C598.874,283.171 588.388,286.073 578.088,289.506C548.039,299.516 517.932,309.374 488.123,320.062C477.575,323.844 472.433,321.299 469.445,310.815C465.833,298.127 460.622,285.857 457.708,273.042C456.78,268.972 459.931,260.522 463.003,259.508C511.591,243.494 560.464,228.364 609.288,213.069C609.683,212.946 610.246,213.327 611.668,213.76Z" style="fill-rule:nonzero;"></path></g><g transform="matrix(0.871777,0.233592,-0.226855,0.846635,7215.18,14870.5)"><path d="M463.226,360.348C465.159,364.588 470.562,365.902 474.249,363.053C483.926,355.577 492.103,349.317 500.114,342.847C507.132,337.179 513.53,336.377 520.816,342.655C526.677,347.698 533.391,351.736 539.654,356.319C559.228,370.649 559.709,372.685 545.712,391.751C522.253,423.688 493.35,450.014 460.699,472.185C451.307,478.559 439.451,475.274 434.5,465.05C409.453,413.325 384.862,361.38 359.395,309.866C353.006,296.967 353.783,289.104 368.067,283.307C379.946,278.486 391.493,272.912 402.524,266.381C412.975,260.195 418.802,262.139 423.35,272.536C434.757,298.624 446.84,324.418 458.665,350.324L463.23,360.342L463.226,360.348Z" style="fill-rule:nonzero;"></path></g><g transform="matrix(0.871777,0.233592,-0.226855,0.846635,7215.18,14870.5)"><path d="M785.9,362.387C782.848,367.887 777.08,371.364 770.845,372.183C756.154,374.117 743.23,375.99 730.249,376.615C727.15,376.762 721.065,370.238 720.839,366.522C718.89,334.183 717.512,301.794 717.257,269.408C717.219,264.775 723.358,257.14 727.927,255.986C743.519,252.036 759.69,250.329 775.649,247.827C785.573,246.269 791.38,251.375 791.203,260.646C790.58,292.893 789.451,325.151 787.552,357.344C787.45,359.069 786.798,360.763 785.9,362.387Z" style="fill-rule:nonzero;"></path></g><g transform="matrix(0.871777,0.233592,-0.226855,0.846635,7215.18,14870.5)"><path d="M880.192,232.086C882.125,236.327 887.528,237.64 891.215,234.791C900.892,227.316 909.068,221.056 917.08,214.585C924.098,208.918 930.496,208.115 937.782,214.393C943.643,219.436 950.357,223.475 956.62,228.057C976.194,242.387 976.675,244.423 962.678,263.489C939.218,295.426 910.315,321.752 877.665,343.923C868.272,350.297 856.416,347.013 851.466,336.789C826.419,285.064 801.828,233.119 776.36,181.604C769.972,168.705 770.749,160.842 785.033,155.045C796.912,150.224 808.459,144.65 819.49,138.119C829.941,131.934 835.768,133.877 840.316,144.274C851.723,170.363 863.805,196.156 875.63,222.062L880.195,232.08L880.192,232.086Z" style="fill-rule:nonzero;"></path></g><g transform="matrix(0.871777,0.233592,-0.226855,0.846635,7215.18,14870.5)"><path d="M348.205,269.559L327.009,285.042C325.768,285.89 324.283,285.648 323.342,284.484L265.013,204.611C264.227,203.639 264.389,202.06 265.453,201.195L265.648,201.034L284.073,187.487C286.924,183.077 290.244,179.247 294.017,176.174C311.928,161.599 338.886,161.716 354.086,180.413C368.657,198.341 366.622,220.766 346.482,237.154C342.414,240.463 337.975,243.112 333.429,245.041L348.766,265.888C349.534,267.033 349.373,268.617 348.407,269.402L348.215,269.557L348.205,269.559ZM318.718,224.97C321.635,224.205 324.896,222.68 327.513,220.552C338.16,211.883 329.735,201.516 329.185,200.839C323.671,194.059 314.388,193.72 307.224,199.551C305.866,200.652 304.479,202.109 303.246,203.758L318.718,224.97Z" style="fill-rule:nonzero;"></path></g><g transform="matrix(0.871777,0.233592,-0.226855,0.846635,7215.18,14870.5)"><path d="M469.343,213.62C451.411,217.356 432.971,207.643 428.935,188.271C424.207,165.59 438.696,150.282 458.055,146.251C482.368,141.185 496.789,158.051 499.773,172.361C504.246,193.829 484.965,210.367 469.343,213.62ZM476.291,177.025C475.855,174.934 473.187,164.348 461.97,166.686C452.73,168.614 451.72,176.979 452.749,181.933C454.334,189.527 461.327,193.356 467.601,192.049C475.409,190.423 477.599,183.304 476.292,177.03L476.291,177.025Z" style="fill-rule:nonzero;"></path></g><g transform="matrix(0.871777,0.233592,-0.226855,0.846635,7215.18,14870.5)"><path d="M679.815,94.876C679.225,96.092 677.919,97.001 676.65,96.837C676.223,96.783 675.724,96.499 675.342,96.124C673.64,94.285 670.08,92.629 666.372,92.141C663.619,91.778 654.311,91.206 652.804,102.776C651.88,109.886 656.36,115.218 663.248,116.123C667.804,116.72 673.368,115.397 679.066,111.396C679.785,110.845 680.808,110.436 681.763,110.56C682.505,110.659 683.299,111.195 683.872,112.566C685.312,116.423 686.335,118.498 687.577,122.223C687.813,122.903 687.926,123.671 687.832,124.412C687.665,125.688 686.983,126.783 685.545,127.889C675.893,134.935 665.251,137.212 655.707,135.96C638.108,133.656 624.128,119.308 626.561,100.633C629.656,76.866 649.886,69.693 667.378,71.983C679.145,73.522 687.014,79.303 686.673,81.955C686.644,82.169 686.603,82.483 686.472,82.681L679.819,94.87L679.815,94.876Z" style="fill-rule:nonzero;"></path></g><g transform="matrix(0.871777,0.233592,-0.226855,0.846635,7215.18,14870.5)"><path d="M400.631,241.493C399.369,242.064 397.937,241.694 397.37,240.429L369.785,186.959C369.219,185.695 369.69,184.218 370.851,183.695L382.78,177.564C387.663,173.212 392.757,169.91 398.019,167.54C401.598,165.93 405.259,164.786 408.857,164.055C410.628,163.765 411.64,164.324 412.206,165.588C412.395,166.01 412.478,166.481 412.609,167.054L416.238,183.285C416.584,184.901 415.863,186.115 414.6,186.681C414.281,186.826 413.815,186.907 413.344,186.99C411.423,187.223 409.488,187.709 407.7,188.519C406.23,189.184 404.848,190.053 403.354,191.235L422.127,227.638L422.223,227.851C422.745,229.013 422.224,230.385 421.063,230.907L400.631,241.493Z" style="fill-rule:nonzero;"></path></g><g transform="matrix(0.871777,0.233592,-0.226855,0.846635,7215.18,14870.5)"><path d="M501.931,214.945C502.082,213.364 503.45,212.216 504.652,211.992L505.09,211.907C505.877,211.87 506.641,211.725 507.301,211.602C513.869,210.363 518.786,206.442 519.114,201.053C519.637,190.746 515.785,162.959 512.328,143.746C511.966,141.261 513.194,140.584 514.509,140.335C514.618,140.317 533.26,137.573 535.687,137.226C537.477,137.11 538.692,138.103 538.974,139.601C539.115,140.35 545.535,183.302 545.249,199.551C544.806,217.943 532.184,226.647 519.271,229.087C513.581,230.162 507.774,230.035 502.916,228.956C501.609,228.649 501.037,227.425 500.854,226.459C500.79,226.14 500.731,225.819 500.798,225.584L501.935,214.939L501.931,214.945ZM525.068,135.683C516.096,137.376 507.516,131.673 505.853,122.998C504.173,114.22 510.038,105.786 519.01,104.092C527.874,102.422 536.454,108.126 538.134,116.904C539.797,125.579 533.926,134.009 525.061,135.679L525.068,135.683Z" style="fill-rule:nonzero;"></path></g><g transform="matrix(0.871777,0.233592,-0.226855,0.846635,7215.18,14870.5)"><path d="M753.087,158.841C752.279,161.45 751.227,162.882 749.25,163.07C748.853,163.106 748.457,163.147 748.052,163.049C726.46,160.87 717.956,149.971 714.036,116.668L704.121,117.089C702.66,117.096 701.35,115.89 701.206,114.442L700.643,92.397C700.631,90.936 701.703,89.634 703.277,89.484L711.749,89.199C711.521,84.161 711.258,78.73 711.094,73.023C711.074,71.428 711.089,68.896 714.507,68.566L715.035,68.511L740.012,67.303C742.261,67.222 743.444,68.44 743.665,70.681C743.942,76.244 744.115,82.089 744.265,87.664L753.392,87.319C754.84,87.18 756.154,88.385 756.307,89.966L756.87,112.01C756.868,113.34 755.93,114.633 754.482,114.772L754.218,114.799L745.495,115.237C746.668,127.239 749.137,136.191 755.171,138.138C756.682,138.661 758.317,139.037 758.456,140.486C758.483,140.75 758.388,141.161 758.295,141.565L753.082,158.842L753.087,158.841Z" style="fill-rule:nonzero;"></path></g><g transform="matrix(0.871777,0.233592,-0.226855,0.846635,7215.18,14870.5)"><path d="M587.337,126.29C585.24,126.353 581.033,127.583 580.008,129.421C578.41,132.279 577.487,136.52 578.36,139.574C580.901,148.43 592.974,152.324 601.815,147.291C605.253,145.334 607.989,142.094 610.932,139.32C613.709,136.699 616.139,136.178 618.252,139.979C618.349,140.159 618.47,140.328 618.579,140.494C626.53,152.404 626.072,155.592 615.06,164.983C600.316,177.56 580.39,177.859 566.479,165.711C552.419,153.431 550.414,135.126 561.274,118.208C572.348,100.956 588.087,96.136 603.981,105.126C613.812,110.684 615.85,116.876 610.98,126.959C609.477,130.069 607.639,133.019 605.864,135.985C601.294,143.628 593.606,144.63 587.111,138.232C586.267,137.406 586.194,135.315 586.465,133.94C586.835,132.024 587.861,130.23 588.608,128.386C588.183,127.686 587.762,126.985 587.337,126.29Z" style="fill-rule:nonzero;"></path></g></g></g></svg>