<svg xmlns="http://www.w3.org/2000/svg" viewBox="0 0 1000 1000">
  <!-- Tsuheji coastline — traced from tsuheji-map.png. Edit this to reshape
       the continent boundary, then re-run extract-map-geometry.py to regen
       the runtime data (or hand-port the path back). -->
  <path d="M 584.91 141.51 L 559.75 154.09 L 553.46 172.96 L 540.88 160.38 L 528.30 172.96 L 509.43 147.80 L 493.71 157.23 L 487.42 188.68 L 462.26 207.55 L 462.26 245.28 L 474.84 257.86 L 455.97 283.02 L 462.26 289.31 L 455.97 295.60 L 468.55 301.89 L 462.26 327.04 L 452.83 336.48 L 433.96 336.48 L 421.38 349.06 L 408.81 349.06 L 396.23 367.92 L 371.07 374.21 L 352.20 386.79 L 336.48 408.81 L 336.48 433.96 L 323.90 459.12 L 301.89 481.13 L 276.73 487.42 L 248.43 528.30 L 257.86 544.03 L 264.15 544.03 L 267.30 534.59 L 289.31 518.87 L 301.89 531.45 L 320.75 525.16 L 333.33 531.45 L 345.91 518.87 L 364.78 518.87 L 367.92 534.59 L 355.35 540.88 L 327.04 575.47 L 295.60 575.47 L 289.31 581.76 L 283.02 575.47 L 257.86 575.47 L 238.99 562.89 L 213.84 562.89 L 210.69 597.48 L 216.98 616.35 L 188.68 625.79 L 163.52 619.50 L 157.23 606.92 L 144.65 606.92 L 132.08 594.34 L 113.21 594.34 L 110.06 584.91 L 119.50 575.47 L 157.23 588.05 L 166.67 559.75 L 160.38 547.17 L 182.39 531.45 L 207.55 531.45 L 248.43 484.28 L 242.14 477.99 L 245.28 462.26 L 264.15 474.84 L 270.44 468.55 L 289.31 468.55 L 305.03 452.83 L 292.45 440.25 L 292.45 421.38 L 283.02 411.95 L 270.44 411.95 L 245.28 430.82 L 220.13 430.82 L 198.11 415.09 L 194.97 380.50 L 188.68 393.08 L 176.10 393.08 L 172.96 377.36 L 198.11 352.20 L 194.97 342.77 L 176.10 342.77 L 169.81 355.35 L 157.23 342.77 L 154.09 358.49 L 128.93 377.36 L 128.93 415.09 L 116.35 427.67 L 116.35 452.83 L 128.93 465.41 L 128.93 477.99 L 119.50 481.13 L 116.35 471.70 L 106.92 468.55 L 88.05 481.13 L 84.91 490.57 L 116.35 515.72 L 110.06 528.30 L 132.08 531.45 L 135.22 540.88 L 94.34 544.03 L 81.76 556.60 L 59.75 553.46 L 69.18 569.18 L 81.76 569.18 L 91.19 578.62 L 78.62 597.48 L 97.48 628.93 L 97.48 641.51 L 122.64 666.67 L 119.50 682.39 L 88.05 676.10 L 84.91 685.53 L 103.77 698.11 L 81.76 701.26 L 72.33 710.69 L 81.76 720.13 L 100.63 720.13 L 103.77 729.56 L 135.22 754.72 L 122.64 773.58 L 122.64 817.61 L 103.77 830.19 L 103.77 842.77 L 84.91 861.64 L 88.05 864.78 L 100.63 864.78 L 132.08 833.33 L 150.94 845.91 L 163.52 845.91 L 172.96 817.61 L 182.39 808.18 L 194.97 808.18 L 207.55 820.75 L 245.28 820.75 L 264.15 839.62 L 295.60 845.91 L 314.47 858.49 L 345.91 858.49 L 355.35 811.32 L 358.49 808.18 L 377.36 820.75 L 383.65 808.18 L 402.52 808.18 L 418.24 786.16 L 405.66 773.58 L 418.24 761.01 L 408.81 751.57 L 396.23 757.86 L 383.65 751.57 L 377.36 757.86 L 361.64 742.14 L 367.92 710.69 L 358.49 707.55 L 349.06 691.82 L 371.07 682.39 L 402.52 682.39 L 433.96 657.23 L 465.41 644.65 L 481.13 628.93 L 481.13 610.06 L 493.71 597.48 L 493.71 584.91 L 506.29 566.04 L 522.01 556.60 L 553.46 569.18 L 578.62 569.18 L 584.91 562.89 L 603.77 569.18 L 610.06 556.60 L 622.64 556.60 L 635.22 569.18 L 666.67 569.18 L 691.82 581.76 L 710.69 613.21 L 748.43 613.21 L 757.86 603.77 L 751.57 566.04 L 720.13 547.17 L 720.13 522.01 L 726.42 509.43 L 713.84 490.57 L 729.56 455.97 L 742.14 455.97 L 754.72 468.55 L 767.30 455.97 L 792.45 449.69 L 798.74 424.53 L 823.90 430.82 L 830.19 418.24 L 858.49 402.52 L 858.49 371.07 L 845.91 358.49 L 852.20 345.91 L 833.33 339.62 L 839.62 320.75 L 836.48 311.32 L 823.90 323.90 L 798.74 317.61 L 795.60 327.04 L 779.87 330.19 L 773.58 342.77 L 748.43 323.90 L 710.69 323.90 L 704.40 317.61 L 685.53 317.61 L 666.67 330.19 L 635.22 330.19 L 632.08 320.75 L 619.50 314.47 L 635.22 286.16 L 654.09 286.16 L 663.52 276.73 L 666.67 261.01 L 679.25 279.87 L 701.26 276.73 L 707.55 245.28 L 691.82 235.85 L 682.39 226.42 L 685.53 223.27 L 710.69 223.27 L 723.27 216.98 L 732.70 238.99 L 748.43 254.72 L 779.87 216.98 L 789.31 213.84 L 789.31 207.55 L 779.87 191.82 L 754.72 185.53 L 735.85 198.11 L 716.98 198.11 L 704.40 210.69 L 691.82 210.69 L 682.39 201.26 L 694.97 188.68 L 685.53 179.25 L 676.10 182.39 L 660.38 204.40 L 647.80 204.40 L 641.51 185.53 L 594.34 163.52 L 600.63 144.65 L 591.19 141.51 L 584.91 141.51 Z" fill="#9ea800" fill-opacity="0.35" stroke="#5a6b00" stroke-width="2"/>
</svg>
